<svg width="139" height="134" viewBox="0 0 139 134" fill="none" xmlns="http://www.w3.org/2000/svg">
<path d="M69.8657 0.285217C31.8191 0.285217 0.865723 30.1171 0.865723 66.7852C0.865723 103.453 31.8191 133.285 69.8657 133.285C107.912 133.285 138.866 103.453 138.866 66.7852C138.866 30.1171 107.912 0.285217 69.8657 0.285217ZM69.8657 10.2602C102.206 10.2602 128.516 35.6167 128.516 66.7852C128.516 86.2431 118.261 103.427 102.688 113.601L55.1763 45.7052C53.9101 43.8865 51.5378 43.0928 49.3746 43.7245C47.2011 44.3696 45.7157 46.3065 45.7157 48.4977V91.7227C45.7157 94.4758 48.0341 96.7102 50.8907 96.7102C53.7473 96.7102 56.0657 94.4758 56.0657 91.7227V64.811L93.5912 118.433C86.3255 121.542 78.3113 123.31 69.8657 123.31C37.5254 123.31 11.2157 97.9538 11.2157 66.7852C11.2157 35.6167 37.5254 10.2602 69.8657 10.2602ZM88.8407 36.8602C85.9841 36.8602 83.6657 39.0946 83.6657 41.8477V70.0648L94.0157 84.3714V41.8477C94.0157 39.0946 91.6973 36.8602 88.8407 36.8602Z" fill="white"/>
</svg>
