<svg width="95" height="68" viewBox="0 0 95 68" fill="none" xmlns="http://www.w3.org/2000/svg">
<mask id="path-1-outside-1_66_3" maskUnits="userSpaceOnUse" x="0" y="49" width="95" height="17" fill="black">
<rect fill="white" y="49" width="95" height="17"/>
<path d="M3.176 57.424H11.752V58.752H3.176V57.424ZM11.992 52V53.328H3.016L3.96 52.368V64H2.456V52H11.992ZM13.1434 54.992H14.6154L15.1274 58.064V64H13.6554V57.792L13.1434 54.992ZM19.9114 54.96V56.288C19.7087 56.224 19.4687 56.176 19.1914 56.144C18.9247 56.112 18.6687 56.096 18.4234 56.096C17.7834 56.096 17.2127 56.24 16.7114 56.528C16.21 56.816 15.8207 57.2373 15.5434 57.792C15.266 58.336 15.1274 58.9813 15.1274 59.728L14.7114 59.152C14.7327 58.5227 14.834 57.9413 15.0154 57.408C15.1967 56.8747 15.4527 56.416 15.7834 56.032C16.1247 55.6373 16.53 55.3333 16.9994 55.12C17.4794 54.896 18.018 54.784 18.6154 54.784C18.8394 54.784 19.0687 54.8 19.3034 54.832C19.5487 54.864 19.7514 54.9067 19.9114 54.96ZM25.5614 64.208C24.5267 64.208 23.6094 64.0107 22.8094 63.616C22.02 63.2107 21.396 62.656 20.9374 61.952C20.4894 61.2373 20.2654 60.416 20.2654 59.488C20.2654 58.5493 20.4787 57.728 20.9054 57.024C21.332 56.32 21.924 55.7707 22.6814 55.376C23.4387 54.9813 24.308 54.784 25.2894 54.784C26.26 54.784 27.108 54.9973 27.8334 55.424C28.5587 55.8507 29.1187 56.4533 29.5134 57.232C29.9187 58 30.1214 58.896 30.1214 59.92H21.3854V58.752H29.4974L28.6334 59.28C28.6014 58.608 28.4414 58.0267 28.1534 57.536C27.8654 57.0453 27.476 56.6667 26.9854 56.4C26.4947 56.1333 25.924 56 25.2734 56C24.5694 56 23.956 56.144 23.4334 56.432C22.9107 56.7093 22.5 57.104 22.2014 57.616C21.9134 58.128 21.7694 58.7307 21.7694 59.424C21.7694 60.1493 21.9347 60.7787 22.2654 61.312C22.596 61.8453 23.06 62.256 23.6574 62.544C24.2547 62.832 24.9587 62.976 25.7694 62.976C26.5054 62.976 27.2254 62.8533 27.9294 62.608C28.644 62.3627 29.284 62.0267 29.8494 61.6V62.752C29.2947 63.2 28.6334 63.5573 27.8654 63.824C27.0974 64.08 26.3294 64.208 25.5614 64.208ZM36.702 64.208C35.6673 64.208 34.75 64.0107 33.95 63.616C33.1607 63.2107 32.5367 62.656 32.078 61.952C31.63 61.2373 31.406 60.416 31.406 59.488C31.406 58.5493 31.6193 57.728 32.046 57.024C32.4727 56.32 33.0647 55.7707 33.822 55.376C34.5793 54.9813 35.4487 54.784 36.43 54.784C37.4007 54.784 38.2487 54.9973 38.974 55.424C39.6993 55.8507 40.2593 56.4533 40.654 57.232C41.0593 58 41.262 58.896 41.262 59.92H32.526V58.752H40.638L39.774 59.28C39.742 58.608 39.582 58.0267 39.294 57.536C39.006 57.0453 38.6167 56.6667 38.126 56.4C37.6353 56.1333 37.0647 56 36.414 56C35.71 56 35.0967 56.144 34.574 56.432C34.0513 56.7093 33.6407 57.104 33.342 57.616C33.054 58.128 32.91 58.7307 32.91 59.424C32.91 60.1493 33.0753 60.7787 33.406 61.312C33.7367 61.8453 34.2007 62.256 34.798 62.544C35.3953 62.832 36.0993 62.976 36.91 62.976C37.646 62.976 38.366 62.8533 39.07 62.608C39.7847 62.3627 40.4247 62.0267 40.99 61.6V62.752C40.4353 63.2 39.774 63.5573 39.006 63.824C38.238 64.08 37.47 64.208 36.702 64.208ZM43.0906 51.68H44.5626V64H43.0906V51.68ZM55.51 64L55.19 60.592L55.59 59.488L55.19 58.4L55.51 54.992H57.014L56.598 59.488L57.014 64H55.51ZM56.086 59.488C55.8513 60.4267 55.4887 61.2533 54.998 61.968C54.518 62.672 53.9313 63.2213 53.238 63.616C52.5553 64.0107 51.798 64.208 50.966 64.208C50.0807 64.208 49.2967 64.0107 48.614 63.616C47.9313 63.2107 47.3927 62.656 46.998 61.952C46.614 61.2373 46.422 60.416 46.422 59.488C46.422 58.5493 46.614 57.728 46.998 57.024C47.3927 56.32 47.9313 55.7707 48.614 55.376C49.2967 54.9813 50.0807 54.784 50.966 54.784C51.798 54.784 52.5553 54.9813 53.238 55.376C53.9313 55.7707 54.5233 56.32 55.014 57.024C55.5047 57.728 55.862 58.5493 56.086 59.488ZM47.926 59.488C47.926 60.1707 48.0647 60.7733 48.342 61.296C48.63 61.8187 49.0193 62.2293 49.51 62.528C50.0113 62.816 50.5767 62.96 51.206 62.96C51.846 62.96 52.4327 62.816 52.966 62.528C53.51 62.2293 53.99 61.8187 54.406 61.296C54.8327 60.7733 55.1793 60.1707 55.446 59.488C55.1793 58.8053 54.8327 58.2027 54.406 57.68C53.99 57.1573 53.51 56.752 52.966 56.464C52.4327 56.1653 51.846 56.016 51.206 56.016C50.5767 56.016 50.0113 56.1653 49.51 56.464C49.0193 56.752 48.63 57.1573 48.342 57.68C48.0647 58.2027 47.926 58.8053 47.926 59.488ZM58.7996 54.992H60.2716L60.7836 58.048V64H59.3116V57.84L58.7996 54.992ZM64.5116 54.784C65.3543 54.784 66.069 54.9547 66.6556 55.296C67.2423 55.6267 67.6903 56.112 67.9996 56.752C68.309 57.3813 68.4636 58.144 68.4636 59.04V64H66.9916V59.296C66.9916 58.2187 66.741 57.408 66.2396 56.864C65.749 56.3093 65.029 56.032 64.0796 56.032C63.4183 56.032 62.837 56.1813 62.3356 56.48C61.845 56.7787 61.461 57.1947 61.1836 57.728C60.917 58.2507 60.7836 58.864 60.7836 59.568L60.1916 59.152C60.2663 58.256 60.4956 57.4827 60.8796 56.832C61.2636 56.1813 61.765 55.68 62.3836 55.328C63.013 54.9653 63.7223 54.784 64.5116 54.784ZM80.2836 60.576C80.1663 61.2907 79.873 61.92 79.4036 62.464C78.945 63.008 78.3583 63.4347 77.6436 63.744C76.929 64.0533 76.1396 64.208 75.2756 64.208C74.273 64.208 73.3876 64.0107 72.6196 63.616C71.8516 63.2107 71.249 62.656 70.8116 61.952C70.385 61.2373 70.1716 60.416 70.1716 59.488C70.1716 58.56 70.385 57.744 70.8116 57.04C71.249 56.3253 71.8516 55.7707 72.6196 55.376C73.3876 54.9813 74.273 54.784 75.2756 54.784C76.1396 54.784 76.929 54.9387 77.6436 55.248C78.3583 55.5467 78.945 55.968 79.4036 56.512C79.873 57.056 80.1663 57.6907 80.2836 58.416H78.7636C78.6036 57.6693 78.2036 57.0827 77.5636 56.656C76.9343 56.2187 76.1716 56 75.2756 56C74.5503 56 73.9156 56.144 73.3716 56.432C72.8383 56.72 72.4223 57.1253 72.1236 57.648C71.825 58.16 71.6756 58.7733 71.6756 59.488C71.6756 60.2027 71.825 60.8213 72.1236 61.344C72.4223 61.8667 72.8383 62.272 73.3716 62.56C73.9156 62.8373 74.5503 62.976 75.2756 62.976C76.1823 62.976 76.9503 62.7573 77.5796 62.32C78.2196 61.8827 78.6143 61.3013 78.7636 60.576H80.2836ZM86.7801 64.208C85.7455 64.208 84.8281 64.0107 84.0281 63.616C83.2388 63.2107 82.6148 62.656 82.1561 61.952C81.7081 61.2373 81.4841 60.416 81.4841 59.488C81.4841 58.5493 81.6975 57.728 82.1241 57.024C82.5508 56.32 83.1428 55.7707 83.9001 55.376C84.6575 54.9813 85.5268 54.784 86.5081 54.784C87.4788 54.784 88.3268 54.9973 89.0521 55.424C89.7775 55.8507 90.3375 56.4533 90.7321 57.232C91.1375 58 91.3401 58.896 91.3401 59.92H82.6041V58.752H90.7161L89.8521 59.28C89.8201 58.608 89.6601 58.0267 89.3721 57.536C89.0841 57.0453 88.6948 56.6667 88.2041 56.4C87.7135 56.1333 87.1428 56 86.4921 56C85.7881 56 85.1748 56.144 84.6521 56.432C84.1295 56.7093 83.7188 57.104 83.4201 57.616C83.1321 58.128 82.9881 58.7307 82.9881 59.424C82.9881 60.1493 83.1535 60.7787 83.4841 61.312C83.8148 61.8453 84.2788 62.256 84.8761 62.544C85.4735 62.832 86.1775 62.976 86.9881 62.976C87.7241 62.976 88.4441 62.8533 89.1481 62.608C89.8628 62.3627 90.5028 62.0267 91.0681 61.6V62.752C90.5135 63.2 89.8521 63.5573 89.0841 63.824C88.3161 64.08 87.5481 64.208 86.7801 64.208Z"/>
</mask>
<path d="M3.176 57.424H11.752V58.752H3.176V57.424ZM11.992 52V53.328H3.016L3.96 52.368V64H2.456V52H11.992ZM13.1434 54.992H14.6154L15.1274 58.064V64H13.6554V57.792L13.1434 54.992ZM19.9114 54.96V56.288C19.7087 56.224 19.4687 56.176 19.1914 56.144C18.9247 56.112 18.6687 56.096 18.4234 56.096C17.7834 56.096 17.2127 56.24 16.7114 56.528C16.21 56.816 15.8207 57.2373 15.5434 57.792C15.266 58.336 15.1274 58.9813 15.1274 59.728L14.7114 59.152C14.7327 58.5227 14.834 57.9413 15.0154 57.408C15.1967 56.8747 15.4527 56.416 15.7834 56.032C16.1247 55.6373 16.53 55.3333 16.9994 55.12C17.4794 54.896 18.018 54.784 18.6154 54.784C18.8394 54.784 19.0687 54.8 19.3034 54.832C19.5487 54.864 19.7514 54.9067 19.9114 54.96ZM25.5614 64.208C24.5267 64.208 23.6094 64.0107 22.8094 63.616C22.02 63.2107 21.396 62.656 20.9374 61.952C20.4894 61.2373 20.2654 60.416 20.2654 59.488C20.2654 58.5493 20.4787 57.728 20.9054 57.024C21.332 56.32 21.924 55.7707 22.6814 55.376C23.4387 54.9813 24.308 54.784 25.2894 54.784C26.26 54.784 27.108 54.9973 27.8334 55.424C28.5587 55.8507 29.1187 56.4533 29.5134 57.232C29.9187 58 30.1214 58.896 30.1214 59.92H21.3854V58.752H29.4974L28.6334 59.28C28.6014 58.608 28.4414 58.0267 28.1534 57.536C27.8654 57.0453 27.476 56.6667 26.9854 56.4C26.4947 56.1333 25.924 56 25.2734 56C24.5694 56 23.956 56.144 23.4334 56.432C22.9107 56.7093 22.5 57.104 22.2014 57.616C21.9134 58.128 21.7694 58.7307 21.7694 59.424C21.7694 60.1493 21.9347 60.7787 22.2654 61.312C22.596 61.8453 23.06 62.256 23.6574 62.544C24.2547 62.832 24.9587 62.976 25.7694 62.976C26.5054 62.976 27.2254 62.8533 27.9294 62.608C28.644 62.3627 29.284 62.0267 29.8494 61.6V62.752C29.2947 63.2 28.6334 63.5573 27.8654 63.824C27.0974 64.08 26.3294 64.208 25.5614 64.208ZM36.702 64.208C35.6673 64.208 34.75 64.0107 33.95 63.616C33.1607 63.2107 32.5367 62.656 32.078 61.952C31.63 61.2373 31.406 60.416 31.406 59.488C31.406 58.5493 31.6193 57.728 32.046 57.024C32.4727 56.32 33.0647 55.7707 33.822 55.376C34.5793 54.9813 35.4487 54.784 36.43 54.784C37.4007 54.784 38.2487 54.9973 38.974 55.424C39.6993 55.8507 40.2593 56.4533 40.654 57.232C41.0593 58 41.262 58.896 41.262 59.92H32.526V58.752H40.638L39.774 59.28C39.742 58.608 39.582 58.0267 39.294 57.536C39.006 57.0453 38.6167 56.6667 38.126 56.4C37.6353 56.1333 37.0647 56 36.414 56C35.71 56 35.0967 56.144 34.574 56.432C34.0513 56.7093 33.6407 57.104 33.342 57.616C33.054 58.128 32.91 58.7307 32.91 59.424C32.91 60.1493 33.0753 60.7787 33.406 61.312C33.7367 61.8453 34.2007 62.256 34.798 62.544C35.3953 62.832 36.0993 62.976 36.91 62.976C37.646 62.976 38.366 62.8533 39.07 62.608C39.7847 62.3627 40.4247 62.0267 40.99 61.6V62.752C40.4353 63.2 39.774 63.5573 39.006 63.824C38.238 64.08 37.47 64.208 36.702 64.208ZM43.0906 51.68H44.5626V64H43.0906V51.68ZM55.51 64L55.19 60.592L55.59 59.488L55.19 58.4L55.51 54.992H57.014L56.598 59.488L57.014 64H55.51ZM56.086 59.488C55.8513 60.4267 55.4887 61.2533 54.998 61.968C54.518 62.672 53.9313 63.2213 53.238 63.616C52.5553 64.0107 51.798 64.208 50.966 64.208C50.0807 64.208 49.2967 64.0107 48.614 63.616C47.9313 63.2107 47.3927 62.656 46.998 61.952C46.614 61.2373 46.422 60.416 46.422 59.488C46.422 58.5493 46.614 57.728 46.998 57.024C47.3927 56.32 47.9313 55.7707 48.614 55.376C49.2967 54.9813 50.0807 54.784 50.966 54.784C51.798 54.784 52.5553 54.9813 53.238 55.376C53.9313 55.7707 54.5233 56.32 55.014 57.024C55.5047 57.728 55.862 58.5493 56.086 59.488ZM47.926 59.488C47.926 60.1707 48.0647 60.7733 48.342 61.296C48.63 61.8187 49.0193 62.2293 49.51 62.528C50.0113 62.816 50.5767 62.96 51.206 62.96C51.846 62.96 52.4327 62.816 52.966 62.528C53.51 62.2293 53.99 61.8187 54.406 61.296C54.8327 60.7733 55.1793 60.1707 55.446 59.488C55.1793 58.8053 54.8327 58.2027 54.406 57.68C53.99 57.1573 53.51 56.752 52.966 56.464C52.4327 56.1653 51.846 56.016 51.206 56.016C50.5767 56.016 50.0113 56.1653 49.51 56.464C49.0193 56.752 48.63 57.1573 48.342 57.68C48.0647 58.2027 47.926 58.8053 47.926 59.488ZM58.7996 54.992H60.2716L60.7836 58.048V64H59.3116V57.84L58.7996 54.992ZM64.5116 54.784C65.3543 54.784 66.069 54.9547 66.6556 55.296C67.2423 55.6267 67.6903 56.112 67.9996 56.752C68.309 57.3813 68.4636 58.144 68.4636 59.04V64H66.9916V59.296C66.9916 58.2187 66.741 57.408 66.2396 56.864C65.749 56.3093 65.029 56.032 64.0796 56.032C63.4183 56.032 62.837 56.1813 62.3356 56.48C61.845 56.7787 61.461 57.1947 61.1836 57.728C60.917 58.2507 60.7836 58.864 60.7836 59.568L60.1916 59.152C60.2663 58.256 60.4956 57.4827 60.8796 56.832C61.2636 56.1813 61.765 55.68 62.3836 55.328C63.013 54.9653 63.7223 54.784 64.5116 54.784ZM80.2836 60.576C80.1663 61.2907 79.873 61.92 79.4036 62.464C78.945 63.008 78.3583 63.4347 77.6436 63.744C76.929 64.0533 76.1396 64.208 75.2756 64.208C74.273 64.208 73.3876 64.0107 72.6196 63.616C71.8516 63.2107 71.249 62.656 70.8116 61.952C70.385 61.2373 70.1716 60.416 70.1716 59.488C70.1716 58.56 70.385 57.744 70.8116 57.04C71.249 56.3253 71.8516 55.7707 72.6196 55.376C73.3876 54.9813 74.273 54.784 75.2756 54.784C76.1396 54.784 76.929 54.9387 77.6436 55.248C78.3583 55.5467 78.945 55.968 79.4036 56.512C79.873 57.056 80.1663 57.6907 80.2836 58.416H78.7636C78.6036 57.6693 78.2036 57.0827 77.5636 56.656C76.9343 56.2187 76.1716 56 75.2756 56C74.5503 56 73.9156 56.144 73.3716 56.432C72.8383 56.72 72.4223 57.1253 72.1236 57.648C71.825 58.16 71.6756 58.7733 71.6756 59.488C71.6756 60.2027 71.825 60.8213 72.1236 61.344C72.4223 61.8667 72.8383 62.272 73.3716 62.56C73.9156 62.8373 74.5503 62.976 75.2756 62.976C76.1823 62.976 76.9503 62.7573 77.5796 62.32C78.2196 61.8827 78.6143 61.3013 78.7636 60.576H80.2836ZM86.7801 64.208C85.7455 64.208 84.8281 64.0107 84.0281 63.616C83.2388 63.2107 82.6148 62.656 82.1561 61.952C81.7081 61.2373 81.4841 60.416 81.4841 59.488C81.4841 58.5493 81.6975 57.728 82.1241 57.024C82.5508 56.32 83.1428 55.7707 83.9001 55.376C84.6575 54.9813 85.5268 54.784 86.5081 54.784C87.4788 54.784 88.3268 54.9973 89.0521 55.424C89.7775 55.8507 90.3375 56.4533 90.7321 57.232C91.1375 58 91.3401 58.896 91.3401 59.92H82.6041V58.752H90.7161L89.8521 59.28C89.8201 58.608 89.6601 58.0267 89.3721 57.536C89.0841 57.0453 88.6948 56.6667 88.2041 56.4C87.7135 56.1333 87.1428 56 86.4921 56C85.7881 56 85.1748 56.144 84.6521 56.432C84.1295 56.7093 83.7188 57.104 83.4201 57.616C83.1321 58.128 82.9881 58.7307 82.9881 59.424C82.9881 60.1493 83.1535 60.7787 83.4841 61.312C83.8148 61.8453 84.2788 62.256 84.8761 62.544C85.4735 62.832 86.1775 62.976 86.9881 62.976C87.7241 62.976 88.4441 62.8533 89.1481 62.608C89.8628 62.3627 90.5028 62.0267 91.0681 61.6V62.752C90.5135 63.2 89.8521 63.5573 89.0841 63.824C88.3161 64.08 87.5481 64.208 86.7801 64.208Z" fill="white" fill-opacity="0.37"/>
<path d="M3.176 57.424V56.424H2.176V57.424H3.176ZM11.752 57.424H12.752V56.424H11.752V57.424ZM11.752 58.752V59.752H12.752V58.752H11.752ZM3.176 58.752H2.176V59.752H3.176V58.752ZM11.992 52H12.992V51H11.992V52ZM11.992 53.328V54.328H12.992V53.328H11.992ZM3.016 53.328L2.30298 52.6269L0.630189 54.328H3.016V53.328ZM3.96 52.368H4.96V49.9248L3.24698 51.6669L3.96 52.368ZM3.96 64V65H4.96V64H3.96ZM2.456 64H1.456V65H2.456V64ZM2.456 52V51H1.456V52H2.456ZM3.176 57.424V58.424H11.752V57.424V56.424H3.176V57.424ZM11.752 57.424H10.752V58.752H11.752H12.752V57.424H11.752ZM11.752 58.752V57.752H3.176V58.752V59.752H11.752V58.752ZM3.176 58.752H4.176V57.424H3.176H2.176V58.752H3.176ZM11.992 52H10.992V53.328H11.992H12.992V52H11.992ZM11.992 53.328V52.328H3.016V53.328V54.328H11.992V53.328ZM3.016 53.328L3.72902 54.0291L4.67302 53.0691L3.96 52.368L3.24698 51.6669L2.30298 52.6269L3.016 53.328ZM3.96 52.368H2.96V64H3.96H4.96V52.368H3.96ZM3.96 64V63H2.456V64V65H3.96V64ZM2.456 64H3.456V52H2.456H1.456V64H2.456ZM2.456 52V53H11.992V52V51H2.456V52ZM13.1434 54.992V53.992H11.9439L12.1597 55.1719L13.1434 54.992ZM14.6154 54.992L15.6018 54.8276L15.4625 53.992H14.6154V54.992ZM15.1274 58.064H16.1274V57.9812L16.1138 57.8996L15.1274 58.064ZM15.1274 64V65H16.1274V64H15.1274ZM13.6554 64H12.6554V65H13.6554V64ZM13.6554 57.792H14.6554V57.7013L14.6391 57.6121L13.6554 57.792ZM19.9114 54.96H20.9114V54.2392L20.2276 54.0113L19.9114 54.96ZM19.9114 56.288L19.6102 57.2416L20.9114 57.6525V56.288H19.9114ZM19.1914 56.144L19.0722 57.1369L19.0768 57.1374L19.1914 56.144ZM16.7114 56.528L17.2095 57.3951L16.7114 56.528ZM15.5434 57.792L16.4343 58.2462L16.4378 58.2392L15.5434 57.792ZM15.1274 59.728L14.3167 60.3135L16.1274 62.8206V59.728H15.1274ZM14.7114 59.152L13.7119 59.1181L13.7004 59.4601L13.9007 59.7375L14.7114 59.152ZM15.0154 57.408L14.0686 57.0861L15.0154 57.408ZM15.7834 56.032L15.027 55.3778L15.0256 55.3795L15.7834 56.032ZM16.9994 55.12L17.4132 56.0304L17.4223 56.0262L16.9994 55.12ZM19.3034 54.832L19.1683 55.8228L19.174 55.8236L19.3034 54.832ZM13.1434 54.992V55.992H14.6154V54.992V53.992H13.1434V54.992ZM14.6154 54.992L13.629 55.1564L14.141 58.2284L15.1274 58.064L16.1138 57.8996L15.6018 54.8276L14.6154 54.992ZM15.1274 58.064H14.1274V64H15.1274H16.1274V58.064H15.1274ZM15.1274 64V63H13.6554V64V65H15.1274V64ZM13.6554 64H14.6554V57.792H13.6554H12.6554V64H13.6554ZM13.6554 57.792L14.6391 57.6121L14.1271 54.8121L13.1434 54.992L12.1597 55.1719L12.6717 57.9719L13.6554 57.792ZM19.9114 54.96H18.9114V56.288H19.9114H20.9114V54.96H19.9114ZM19.9114 56.288L20.2125 55.3344C19.9336 55.2463 19.6282 55.1878 19.306 55.1506L19.1914 56.144L19.0768 57.1374C19.3092 57.1642 19.4838 57.2017 19.6102 57.2416L19.9114 56.288ZM19.1914 56.144L19.3105 55.1511C19.008 55.1148 18.7121 55.096 18.4234 55.096V56.096V57.096C18.6254 57.096 18.8414 57.1092 19.0722 57.1369L19.1914 56.144ZM18.4234 56.096V55.096C17.6277 55.096 16.8819 55.2767 16.2133 55.6609L16.7114 56.528L17.2095 57.3951C17.5435 57.2032 17.939 57.096 18.4234 57.096V56.096ZM16.7114 56.528L16.2133 55.6609C15.5289 56.054 15.0075 56.6276 14.6489 57.3448L15.5434 57.792L16.4378 58.2392C16.6339 57.847 16.8912 57.578 17.2095 57.3951L16.7114 56.528ZM15.5434 57.792L14.6525 57.3378C14.2892 58.0504 14.1274 58.8581 14.1274 59.728H15.1274H16.1274C16.1274 59.1046 16.2429 58.6216 16.4343 58.2462L15.5434 57.792ZM15.1274 59.728L15.9381 59.1425L15.5221 58.5665L14.7114 59.152L13.9007 59.7375L14.3167 60.3135L15.1274 59.728ZM14.7114 59.152L15.7108 59.1859C15.7292 58.6432 15.8159 58.1601 15.9621 57.7299L15.0154 57.408L14.0686 57.0861C13.8522 57.7225 13.7362 58.4021 13.7119 59.1181L14.7114 59.152ZM15.0154 57.408L15.9621 57.7299C16.1068 57.3043 16.3029 56.9612 16.5411 56.6845L15.7834 56.032L15.0256 55.3795C14.6025 55.8708 14.2866 56.445 14.0686 57.0861L15.0154 57.408ZM15.7834 56.032L16.5397 56.6862C16.7879 56.3992 17.0768 56.1833 17.4132 56.0304L16.9994 55.12L16.5856 54.2096C15.9833 54.4834 15.4615 54.8754 15.027 55.3778L15.7834 56.032ZM16.9994 55.12L17.4223 56.0262C17.7539 55.8714 18.1454 55.784 18.6154 55.784V54.784V53.784C17.8906 53.784 17.2049 53.9206 16.5765 54.2138L16.9994 55.12ZM18.6154 54.784V55.784C18.7917 55.784 18.9758 55.7966 19.1683 55.8228L19.3034 54.832L19.4385 53.8412C19.1616 53.8034 18.8871 53.784 18.6154 53.784V54.784ZM19.3034 54.832L19.174 55.8236C19.3823 55.8508 19.5169 55.8826 19.5951 55.9087L19.9114 54.96L20.2276 54.0113C19.9859 53.9307 19.7151 53.8772 19.4327 53.8404L19.3034 54.832ZM22.8094 63.616L22.3526 64.5056L22.3597 64.5092L22.367 64.5128L22.8094 63.616ZM20.9374 61.952L20.0901 62.4831L20.0947 62.4905L20.0995 62.4979L20.9374 61.952ZM20.9054 57.024L20.0502 56.5057L20.9054 57.024ZM22.6814 55.376L22.2192 54.4892L22.6814 55.376ZM27.8334 55.424L27.3264 56.2859V56.2859L27.8334 55.424ZM29.5134 57.232L28.6214 57.6841L28.6251 57.6915L28.629 57.6988L29.5134 57.232ZM30.1214 59.92V60.92H31.1214V59.92H30.1214ZM21.3854 59.92H20.3854V60.92H21.3854V59.92ZM21.3854 58.752V57.752H20.3854V58.752H21.3854ZM29.4974 58.752L30.0188 59.6053L33.0515 57.752H29.4974V58.752ZM28.6334 59.28L27.6345 59.3276L27.7148 61.0133L29.1548 60.1333L28.6334 59.28ZM26.9854 56.4L27.4629 55.5214V55.5214L26.9854 56.4ZM23.4334 56.432L23.9021 57.3153L23.9091 57.3116L23.916 57.3078L23.4334 56.432ZM22.2014 57.616L21.3376 57.1121L21.3336 57.1189L21.3298 57.1257L22.2014 57.616ZM22.2654 61.312L23.1153 60.7851L22.2654 61.312ZM23.6574 62.544L24.0917 61.6432L23.6574 62.544ZM27.9294 62.608L27.6047 61.6622L27.6003 61.6637L27.9294 62.608ZM29.8494 61.6H30.8494V59.5924L29.247 60.8018L29.8494 61.6ZM29.8494 62.752L30.4777 63.5299L30.8494 63.2298V62.752H29.8494ZM27.8654 63.824L28.1816 64.7728L28.1934 64.7687L27.8654 63.824ZM25.5614 64.208V63.208C24.6556 63.208 23.8938 63.0359 23.2518 62.7192L22.8094 63.616L22.367 64.5128C23.325 64.9854 24.3978 65.208 25.5614 65.208V64.208ZM22.8094 63.616L23.2662 62.7264C22.6226 62.3959 22.1336 61.9561 21.7752 61.4061L20.9374 61.952L20.0995 62.4979C20.6585 63.3559 21.4175 64.0254 22.3526 64.5056L22.8094 63.616ZM20.9374 61.952L21.7847 61.4209C21.4463 60.8811 21.2654 60.2476 21.2654 59.488H20.2654H19.2654C19.2654 60.5844 19.5324 61.5935 20.0901 62.4831L20.9374 61.952ZM20.2654 59.488H21.2654C21.2654 58.7059 21.4413 58.069 21.7606 57.5423L20.9054 57.024L20.0502 56.5057C19.5161 57.387 19.2654 58.3928 19.2654 59.488H20.2654ZM20.9054 57.024L21.7606 57.5423C22.0887 57.0008 22.5421 56.5762 23.1435 56.2628L22.6814 55.376L22.2192 54.4892C21.306 54.9651 20.5753 55.6392 20.0502 56.5057L20.9054 57.024ZM22.6814 55.376L23.1435 56.2628C23.7382 55.9529 24.4448 55.784 25.2894 55.784V54.784V53.784C24.1713 53.784 23.1392 54.0098 22.2192 54.4892L22.6814 55.376ZM25.2894 54.784V55.784C26.1095 55.784 26.777 55.9628 27.3264 56.2859L27.8334 55.424L28.3404 54.5621C27.4391 54.0319 26.4106 53.784 25.2894 53.784V54.784ZM27.8334 55.424L27.3264 56.2859C27.8804 56.6119 28.3098 57.0693 28.6214 57.6841L29.5134 57.232L30.4053 56.7799C29.9276 55.8373 29.237 55.0895 28.3404 54.5621L27.8334 55.424ZM29.5134 57.232L28.629 57.6988C28.9459 58.2992 29.1214 59.0296 29.1214 59.92H30.1214H31.1214C31.1214 58.7624 30.8915 57.7008 30.3978 56.7652L29.5134 57.232ZM30.1214 59.92V58.92H21.3854V59.92V60.92H30.1214V59.92ZM21.3854 59.92H22.3854V58.752H21.3854H20.3854V59.92H21.3854ZM21.3854 58.752V59.752H29.4974V58.752V57.752H21.3854V58.752ZM29.4974 58.752L28.9759 57.8987L28.1119 58.4267L28.6334 59.28L29.1548 60.1333L30.0188 59.6053L29.4974 58.752ZM28.6334 59.28L29.6322 59.2324C29.5939 58.4282 29.3994 57.6834 29.0158 57.0298L28.1534 57.536L27.291 58.0422C27.4833 58.3699 27.6088 58.7878 27.6345 59.3276L28.6334 59.28ZM28.1534 57.536L29.0158 57.0298C28.6376 56.3854 28.1165 55.8766 27.4629 55.5214L26.9854 56.4L26.5079 57.2786C26.8356 57.4568 27.0932 57.7053 27.291 58.0422L28.1534 57.536ZM26.9854 56.4L27.4629 55.5214C26.8031 55.1628 26.0632 55 25.2734 55V56V57C25.7849 57 26.1863 57.1039 26.5079 57.2786L26.9854 56.4ZM25.2734 56V55C24.431 55 23.6458 55.1732 22.9508 55.5562L23.4334 56.432L23.916 57.3078C24.2663 57.1148 24.7077 57 25.2734 57V56ZM23.4334 56.432L22.9647 55.5487C22.2772 55.9134 21.7299 56.4396 21.3376 57.1121L22.2014 57.616L23.0652 58.1199C23.2702 57.7684 23.5442 57.5053 23.9021 57.3153L23.4334 56.432ZM22.2014 57.616L21.3298 57.1257C20.9436 57.8124 20.7694 58.59 20.7694 59.424H21.7694H22.7694C22.7694 58.8713 22.8832 58.4436 23.073 58.1063L22.2014 57.616ZM21.7694 59.424H20.7694C20.7694 60.306 20.9722 61.124 21.4155 61.8389L22.2654 61.312L23.1153 60.7851C22.8972 60.4334 22.7694 59.9927 22.7694 59.424H21.7694ZM22.2654 61.312L21.4155 61.8389C21.8521 62.5432 22.4647 63.0791 23.2231 63.4448L23.6574 62.544L24.0917 61.6432C23.6554 61.4329 23.34 61.1475 23.1153 60.7851L22.2654 61.312ZM23.6574 62.544L23.2231 63.4448C23.9826 63.811 24.8412 63.976 25.7694 63.976V62.976V61.976C25.0763 61.976 24.5268 61.853 24.0917 61.6432L23.6574 62.544ZM25.7694 62.976V63.976C26.6189 63.976 27.45 63.834 28.2585 63.5523L27.9294 62.608L27.6003 61.6637C27.0007 61.8726 26.3919 61.976 25.7694 61.976V62.976ZM27.9294 62.608L28.2541 63.5538C29.0618 63.2765 29.7968 62.8925 30.4518 62.3982L29.8494 61.6L29.247 60.8018C28.7713 61.1608 28.2263 61.4488 27.6047 61.6622L27.9294 62.608ZM29.8494 61.6H28.8494V62.752H29.8494H30.8494V61.6H29.8494ZM29.8494 62.752L29.221 61.9741C28.7677 62.3402 28.2115 62.6453 27.5374 62.8793L27.8654 63.824L28.1934 64.7687C29.0553 64.4694 29.8217 64.0598 30.4777 63.5299L29.8494 62.752ZM27.8654 63.824L27.5491 62.8753C26.8776 63.0992 26.2162 63.208 25.5614 63.208V64.208V65.208C26.4426 65.208 27.3172 65.0608 28.1816 64.7727L27.8654 63.824ZM33.95 63.616L33.4932 64.5056L33.5004 64.5092L33.5076 64.5128L33.95 63.616ZM32.078 61.952L31.2307 62.4831L31.2354 62.4905L31.2401 62.4979L32.078 61.952ZM32.046 57.024L31.1908 56.5057L32.046 57.024ZM33.822 55.376L33.3599 54.4892L33.822 55.376ZM38.974 55.424L38.467 56.2859V56.2859L38.974 55.424ZM40.654 57.232L39.762 57.6841L39.7658 57.6915L39.7696 57.6988L40.654 57.232ZM41.262 59.92V60.92H42.262V59.92H41.262ZM32.526 59.92H31.526V60.92H32.526V59.92ZM32.526 58.752V57.752H31.526V58.752H32.526ZM40.638 58.752L41.1595 59.6053L44.1921 57.752H40.638V58.752ZM39.774 59.28L38.7751 59.3276L38.8554 61.0133L40.2954 60.1333L39.774 59.28ZM38.126 56.4L38.6035 55.5214L38.6035 55.5214L38.126 56.4ZM34.574 56.432L35.0427 57.3153L35.0497 57.3116L35.0566 57.3078L34.574 56.432ZM33.342 57.616L32.4782 57.1121L32.4743 57.1189L32.4704 57.1257L33.342 57.616ZM33.406 61.312L34.2559 60.7851L33.406 61.312ZM34.798 62.544L35.2323 61.6432L34.798 62.544ZM39.07 62.608L38.7453 61.6622L38.7409 61.6637L39.07 62.608ZM40.99 61.6H41.99V59.5924L40.3876 60.8018L40.99 61.6ZM40.99 62.752L41.6183 63.5299L41.99 63.2298V62.752H40.99ZM39.006 63.824L39.3223 64.7728L39.334 64.7687L39.006 63.824ZM36.702 64.208V63.208C35.7963 63.208 35.0344 63.0359 34.3924 62.7192L33.95 63.616L33.5076 64.5128C34.4656 64.9854 35.5384 65.208 36.702 65.208V64.208ZM33.95 63.616L34.4068 62.7264C33.7632 62.3959 33.2742 61.9561 32.9159 61.4061L32.078 61.952L31.2401 62.4979C31.7991 63.3559 32.5581 64.0254 33.4932 64.5056L33.95 63.616ZM32.078 61.952L32.9253 61.4209C32.5869 60.8811 32.406 60.2476 32.406 59.488H31.406H30.406C30.406 60.5844 30.6731 61.5935 31.2307 62.4831L32.078 61.952ZM31.406 59.488H32.406C32.406 58.7059 32.582 58.069 32.9012 57.5423L32.046 57.024L31.1908 56.5057C30.6567 57.387 30.406 58.3928 30.406 59.488H31.406ZM32.046 57.024L32.9012 57.5423C33.2294 57.0008 33.6827 56.5762 34.2841 56.2628L33.822 55.376L33.3599 54.4892C32.4466 54.9651 31.716 55.6392 31.1908 56.5057L32.046 57.024ZM33.822 55.376L34.2841 56.2628C34.8788 55.9529 35.5854 55.784 36.43 55.784V54.784V53.784C35.3119 53.784 34.2799 54.0098 33.3599 54.4892L33.822 55.376ZM36.43 54.784V55.784C37.2501 55.784 37.9176 55.9628 38.467 56.2859L38.974 55.424L39.481 54.5621C38.5797 54.0319 37.5512 53.784 36.43 53.784V54.784ZM38.974 55.424L38.467 56.2859C39.0211 56.6119 39.4504 57.0693 39.762 57.6841L40.654 57.232L41.546 56.7799C41.0682 55.8373 40.3776 55.0895 39.481 54.5621L38.974 55.424ZM40.654 57.232L39.7696 57.6988C40.0865 58.2992 40.262 59.0296 40.262 59.92H41.262H42.262C42.262 58.7624 42.0322 57.7008 41.5384 56.7652L40.654 57.232ZM41.262 59.92V58.92H32.526V59.92V60.92H41.262V59.92ZM32.526 59.92H33.526V58.752H32.526H31.526V59.92H32.526ZM32.526 58.752V59.752H40.638V58.752V57.752H32.526V58.752ZM40.638 58.752L40.1166 57.8987L39.2526 58.4267L39.774 59.28L40.2954 60.1333L41.1595 59.6053L40.638 58.752ZM39.774 59.28L40.7729 59.2324C40.7346 58.4282 40.5401 57.6834 40.1564 57.0298L39.294 57.536L38.4316 58.0422C38.6239 58.3699 38.7494 58.7878 38.7751 59.3276L39.774 59.28ZM39.294 57.536L40.1564 57.0298C39.7782 56.3854 39.2571 55.8766 38.6035 55.5214L38.126 56.4L37.6485 57.2786C37.9762 57.4568 38.2338 57.7053 38.4316 58.0422L39.294 57.536ZM38.126 56.4L38.6035 55.5214C37.9438 55.1628 37.2038 55 36.414 55V56V57C36.9255 57 37.3269 57.1039 37.6485 57.2786L38.126 56.4ZM36.414 56V55C35.5716 55 34.7864 55.1732 34.0914 55.5562L34.574 56.432L35.0566 57.3078C35.4069 57.1148 35.8484 57 36.414 57V56ZM34.574 56.432L34.1053 55.5487C33.4179 55.9134 32.8705 56.4396 32.4782 57.1121L33.342 57.616L34.2058 58.1199C34.4108 57.7684 34.6848 57.5053 35.0427 57.3153L34.574 56.432ZM33.342 57.616L32.4704 57.1257C32.0842 57.8124 31.91 58.59 31.91 59.424H32.91H33.91C33.91 58.8713 34.0238 58.4436 34.2136 58.1063L33.342 57.616ZM32.91 59.424H31.91C31.91 60.306 32.1128 61.124 32.5561 61.8389L33.406 61.312L34.2559 60.7851C34.0378 60.4334 33.91 59.9927 33.91 59.424H32.91ZM33.406 61.312L32.5561 61.8389C32.9927 62.5432 33.6053 63.0791 34.3637 63.4448L34.798 62.544L35.2323 61.6432C34.796 61.4329 34.4806 61.1475 34.2559 60.7851L33.406 61.312ZM34.798 62.544L34.3637 63.4448C35.1233 63.811 35.9818 63.976 36.91 63.976V62.976V61.976C36.2169 61.976 35.6674 61.853 35.2323 61.6432L34.798 62.544ZM36.91 62.976V63.976C37.7595 63.976 38.5907 63.834 39.3991 63.5523L39.07 62.608L38.7409 61.6637C38.1413 61.8726 37.5325 61.976 36.91 61.976V62.976ZM39.07 62.608L39.3947 63.5538C40.2025 63.2765 40.9374 62.8925 41.5924 62.3982L40.99 61.6L40.3876 60.8018C39.9119 61.1608 39.3669 61.4488 38.7453 61.6622L39.07 62.608ZM40.99 61.6H39.99V62.752H40.99H41.99V61.6H40.99ZM40.99 62.752L40.3617 61.9741C39.9084 62.3402 39.3521 62.6453 38.678 62.8793L39.006 63.824L39.334 64.7687C40.1959 64.4694 40.9623 64.0598 41.6183 63.5299L40.99 62.752ZM39.006 63.824L38.6898 62.8753C38.0182 63.0992 37.3568 63.208 36.702 63.208V64.208V65.208C37.5832 65.208 38.4578 65.0608 39.3222 64.7727L39.006 63.824ZM43.0906 51.68V50.68H42.0906V51.68H43.0906ZM44.5626 51.68H45.5626V50.68H44.5626V51.68ZM44.5626 64V65H45.5626V64H44.5626ZM43.0906 64H42.0906V65H43.0906V64ZM43.0906 51.68V52.68H44.5626V51.68V50.68H43.0906V51.68ZM44.5626 51.68H43.5626V64H44.5626H45.5626V51.68H44.5626ZM44.5626 64V63H43.0906V64V65H44.5626V64ZM43.0906 64H44.0906V51.68H43.0906H42.0906V64H43.0906ZM55.51 64L54.5144 64.0935L54.5995 65H55.51V64ZM55.19 60.592L54.2498 60.2514L54.1734 60.4622L54.1944 60.6855L55.19 60.592ZM55.59 59.488L56.5302 59.8286L56.6545 59.4855L56.5286 59.1429L55.59 59.488ZM55.19 58.4L54.1944 58.3065L54.1732 58.5323L54.2514 58.7451L55.19 58.4ZM55.51 54.992V53.992H54.5995L54.5144 54.8985L55.51 54.992ZM57.014 54.992L58.0097 55.0841L58.1108 53.992H57.014V54.992ZM56.598 59.488L55.6023 59.3959L55.5937 59.4878L55.6022 59.5798L56.598 59.488ZM57.014 64V65H58.1104L58.0098 63.9082L57.014 64ZM56.086 59.488L57.0561 59.7305L57.1154 59.4935L57.0587 59.2559L56.086 59.488ZM54.998 61.968L54.1736 61.402L54.1718 61.4047L54.998 61.968ZM53.238 63.616L52.7433 62.7469L52.7375 62.7503L53.238 63.616ZM48.614 63.616L48.1034 64.4759L48.1135 64.4817L48.614 63.616ZM46.998 61.952L46.1171 62.4253L46.1213 62.4332L46.1257 62.441L46.998 61.952ZM46.998 57.024L46.1257 56.535L46.1201 56.5451L46.998 57.024ZM48.614 55.376L48.1135 54.5103L48.614 55.376ZM53.238 55.376L52.7375 56.2418L52.7433 56.2451L53.238 55.376ZM55.014 57.024L55.8344 56.4522V56.4522L55.014 57.024ZM48.342 61.296L47.4587 61.7647L47.4624 61.7717L47.4662 61.7786L48.342 61.296ZM49.51 62.528L48.9901 63.3822L49.0009 63.3888L49.0119 63.3951L49.51 62.528ZM52.966 62.528L53.4412 63.4079L53.4473 63.4046L52.966 62.528ZM54.406 61.296L53.6313 60.6636L53.6236 60.6733L54.406 61.296ZM55.446 59.488L56.3775 59.8519L56.5196 59.488L56.3775 59.1241L55.446 59.488ZM54.406 57.68L53.6235 58.3028L53.6313 58.3124L54.406 57.68ZM52.966 56.464L52.4774 57.3365L52.4877 57.3423L52.4981 57.3478L52.966 56.464ZM49.51 56.464L50.0162 57.3264L50.0218 57.3231L49.51 56.464ZM48.342 57.68L47.4662 57.1974L47.4624 57.2043L47.4587 57.2113L48.342 57.68ZM55.51 64L56.5056 63.9065L56.1856 60.4985L55.19 60.592L54.1944 60.6855L54.5144 64.0935L55.51 64ZM55.19 60.592L56.1302 60.9326L56.5302 59.8286L55.59 59.488L54.6498 59.1474L54.2498 60.2514L55.19 60.592ZM55.59 59.488L56.5286 59.1429L56.1286 58.0549L55.19 58.4L54.2514 58.7451L54.6514 59.8331L55.59 59.488ZM55.19 58.4L56.1856 58.4935L56.5056 55.0855L55.51 54.992L54.5144 54.8985L54.1944 58.3065L55.19 58.4ZM55.51 54.992V55.992H57.014V54.992V53.992H55.51V54.992ZM57.014 54.992L56.0183 54.8999L55.6023 59.3959L56.598 59.488L57.5937 59.5801L58.0097 55.0841L57.014 54.992ZM56.598 59.488L55.6022 59.5798L56.0182 64.0918L57.014 64L58.0098 63.9082L57.5938 59.3962L56.598 59.488ZM57.014 64V63H55.51V64V65H57.014V64ZM56.086 59.488L55.1159 59.2455C54.9068 60.0818 54.5894 60.7963 54.1736 61.402L54.998 61.968L55.8224 62.534C56.3879 61.7103 56.7959 60.7715 57.0561 59.7305L56.086 59.488ZM54.998 61.968L54.1718 61.4047C53.7716 61.9916 53.2954 62.4327 52.7433 62.7469L53.238 63.616L53.7327 64.4851C54.5673 64.01 55.2644 63.3524 55.8242 62.5313L54.998 61.968ZM53.238 63.616L52.7375 62.7503C52.2155 63.0521 51.6323 63.208 50.966 63.208V64.208V65.208C51.9637 65.208 52.8952 64.9693 53.7385 64.4817L53.238 63.616ZM50.966 64.208V63.208C50.2344 63.208 49.627 63.0466 49.1145 62.7503L48.614 63.616L48.1135 64.4817C48.9663 64.9748 49.927 65.208 50.966 65.208V64.208ZM48.614 63.616L49.1245 62.7561C48.5955 62.4421 48.1805 62.0164 47.8703 61.463L46.998 61.952L46.1257 62.441C46.6048 63.2956 47.2671 63.9793 48.1035 64.4759L48.614 63.616ZM46.998 61.952L47.8789 61.4787C47.5837 60.9293 47.422 60.2748 47.422 59.488H46.422H45.422C45.422 60.5572 45.6443 61.5454 46.1171 62.4253L46.998 61.952ZM46.422 59.488H47.422C47.422 58.688 47.5847 58.0367 47.8759 57.5029L46.998 57.024L46.1201 56.5451C45.6433 57.4193 45.422 58.4107 45.422 59.488H46.422ZM46.998 57.024L47.8703 57.513C48.1793 56.9618 48.5911 56.5443 49.1145 56.2417L48.614 55.376L48.1135 54.5103C47.2715 54.997 46.6061 55.6782 46.1257 56.535L46.998 57.024ZM48.614 55.376L49.1145 56.2417C49.627 55.9454 50.2344 55.784 50.966 55.784V54.784V53.784C49.927 53.784 48.9663 54.0172 48.1135 54.5103L48.614 55.376ZM50.966 54.784V55.784C51.6323 55.784 52.2155 55.9399 52.7375 56.2417L53.238 55.376L53.7385 54.5103C52.8952 54.0227 51.9637 53.784 50.966 53.784V54.784ZM53.238 55.376L52.7433 56.2451C53.2977 56.5606 53.7815 57.0045 54.1936 57.5958L55.014 57.024L55.8344 56.4522C55.2652 55.6355 54.565 54.9807 53.7327 54.5069L53.238 55.376ZM55.014 57.024L54.1936 57.5958C54.6043 58.1851 54.9148 58.8881 55.1133 59.7201L56.086 59.488L57.0587 59.2559C56.8092 58.2105 56.405 57.2709 55.8344 56.4522L55.014 57.024ZM47.926 59.488H46.926C46.926 60.3088 47.0937 61.0769 47.4587 61.7647L48.342 61.296L49.2253 60.8273C49.0356 60.4698 48.926 60.0325 48.926 59.488H47.926ZM48.342 61.296L47.4662 61.7786C47.8349 62.4479 48.3444 62.9892 48.9901 63.3822L49.51 62.528L50.0299 61.6738C49.6942 61.4694 49.4251 61.1895 49.2178 60.8134L48.342 61.296ZM49.51 62.528L49.0119 63.3951C49.678 63.7778 50.4178 63.96 51.206 63.96V62.96V61.96C50.7355 61.96 50.3446 61.8542 50.0081 61.6609L49.51 62.528ZM51.206 62.96V63.96C52.0023 63.96 52.7536 63.7792 53.4412 63.4079L52.966 62.528L52.4909 61.6481C52.1117 61.8528 51.6897 61.96 51.206 61.96V62.96ZM52.966 62.528L53.4473 63.4046C54.1161 63.0374 54.6962 62.5371 55.1884 61.9187L54.406 61.296L53.6236 60.6733C53.2838 61.1002 52.9039 61.4213 52.4847 61.6514L52.966 62.528ZM54.406 61.296L55.1807 61.9284C55.6787 61.3183 56.0761 60.6233 56.3775 59.8519L55.446 59.488L54.5145 59.1241C54.2826 59.718 53.9866 60.2284 53.6313 60.6636L54.406 61.296ZM55.446 59.488L56.3775 59.1241C56.0761 58.3527 55.6787 57.6577 55.1807 57.0476L54.406 57.68L53.6313 58.3124C53.9866 58.7476 54.2826 59.258 54.5145 59.8519L55.446 59.488ZM54.406 57.68L55.1884 57.0573C54.6941 56.4361 54.1097 55.938 53.4339 55.5802L52.966 56.464L52.4981 57.3478C52.9103 57.566 53.2859 57.8785 53.6236 58.3027L54.406 57.68ZM52.966 56.464L53.4546 55.5915C52.7649 55.2052 52.0087 55.016 51.206 55.016V56.016V57.016C51.6833 57.016 52.1005 57.1254 52.4774 57.3365L52.966 56.464ZM51.206 56.016V55.016C50.4111 55.016 49.6664 55.2068 48.9982 55.6049L49.51 56.464L50.0218 57.3231C50.3562 57.1239 50.7422 57.016 51.206 57.016V56.016ZM49.51 56.464L49.0038 55.6016C48.3503 55.9852 47.8365 56.5252 47.4662 57.1974L48.342 57.68L49.2178 58.1626C49.4235 57.7894 49.6884 57.5188 50.0162 57.3264L49.51 56.464ZM48.342 57.68L47.4587 57.2113C47.0937 57.8991 46.926 58.6672 46.926 59.488H47.926H48.926C48.926 58.9435 49.0356 58.5062 49.2253 58.1487L48.342 57.68ZM58.7996 54.992V53.992H57.6038L57.8154 55.1689L58.7996 54.992ZM60.2716 54.992L61.2579 54.8268L61.118 53.992H60.2716V54.992ZM60.7836 58.048H61.7836V57.9648L61.7699 57.8828L60.7836 58.048ZM60.7836 64V65H61.7836V64H60.7836ZM59.3116 64H58.3116V65H59.3116V64ZM59.3116 57.84H60.3116V57.7508L60.2958 57.6631L59.3116 57.84ZM66.6556 55.296L66.1527 56.1604L66.1646 56.1672L66.6556 55.296ZM67.9996 56.752L67.0993 57.1872L67.1022 57.1931L67.9996 56.752ZM68.4636 64V65H69.4636V64H68.4636ZM66.9916 64H65.9916V65H66.9916V64ZM66.2396 56.864L65.4906 57.5266L65.4974 57.5342L65.5043 57.5417L66.2396 56.864ZM62.3356 56.48L61.8238 55.6209L61.8157 55.6258L62.3356 56.48ZM61.1836 57.728L60.2964 57.2666L60.2929 57.2735L61.1836 57.728ZM60.7836 59.568L60.2087 60.3862L61.7836 61.4929V59.568H60.7836ZM60.1916 59.152L59.1951 59.069L59.1475 59.6405L59.6167 59.9702L60.1916 59.152ZM62.3836 55.328L62.8782 56.1972L62.8829 56.1944L62.3836 55.328ZM58.7996 54.992V55.992H60.2716V54.992V53.992H58.7996V54.992ZM60.2716 54.992L59.2854 55.1572L59.7974 58.2132L60.7836 58.048L61.7699 57.8828L61.2579 54.8268L60.2716 54.992ZM60.7836 58.048H59.7836V64H60.7836H61.7836V58.048H60.7836ZM60.7836 64V63H59.3116V64V65H60.7836V64ZM59.3116 64H60.3116V57.84H59.3116H58.3116V64H59.3116ZM59.3116 57.84L60.2958 57.6631L59.7838 54.8151L58.7996 54.992L57.8154 55.1689L58.3274 58.0169L59.3116 57.84ZM64.5116 54.784V55.784C65.2199 55.784 65.7516 55.927 66.1527 56.1603L66.6556 55.296L67.1585 54.4317C66.3863 53.9824 65.4887 53.784 64.5116 53.784V54.784ZM66.6556 55.296L66.1646 56.1672C66.5634 56.3919 66.8735 56.7201 67.0993 57.1872L67.9996 56.752L68.9 56.3168C68.5071 55.5039 67.9212 54.8614 67.1466 54.4248L66.6556 55.296ZM67.9996 56.752L67.1022 57.1931C67.328 57.6525 67.4636 58.2558 67.4636 59.04H68.4636H69.4636C69.4636 58.0322 69.2899 57.1102 68.8971 56.3109L67.9996 56.752ZM68.4636 59.04H67.4636V64H68.4636H69.4636V59.04H68.4636ZM68.4636 64V63H66.9916V64V65H68.4636V64ZM66.9916 64H67.9916V59.296H66.9916H65.9916V64H66.9916ZM66.9916 59.296H67.9916C67.9916 58.0807 67.7102 56.9841 66.975 56.1863L66.2396 56.864L65.5043 57.5417C65.7718 57.8319 65.9916 58.3566 65.9916 59.296H66.9916ZM66.2396 56.864L66.9886 56.2014C66.2576 55.3751 65.2291 55.032 64.0796 55.032V56.032V57.032C64.8288 57.032 65.2403 57.2436 65.4906 57.5266L66.2396 56.864ZM64.0796 56.032V55.032C63.2626 55.032 62.4997 55.2182 61.8238 55.6209L62.3356 56.48L62.8474 57.3391C63.1742 57.1444 63.5739 57.032 64.0796 57.032V56.032ZM62.3356 56.48L61.8157 55.6258C61.1616 56.0239 60.6539 56.5792 60.2964 57.2666L61.1836 57.728L62.0708 58.1894C62.268 57.8102 62.5283 57.5334 62.8556 57.3342L62.3356 56.48ZM61.1836 57.728L60.2929 57.2735C59.9414 57.9624 59.7836 58.7373 59.7836 59.568H60.7836H61.7836C61.7836 58.9907 61.8925 58.539 62.0744 58.1825L61.1836 57.728ZM60.7836 59.568L61.3586 58.7498L60.7666 58.3338L60.1916 59.152L59.6167 59.9702L60.2087 60.3862L60.7836 59.568ZM60.1916 59.152L61.1882 59.235C61.2527 58.4609 61.4466 57.8388 61.7408 57.3403L60.8796 56.832L60.0184 56.3237C59.5446 57.1265 59.2799 58.0511 59.1951 59.069L60.1916 59.152ZM60.8796 56.832L61.7408 57.3403C62.0418 56.8302 62.4205 56.4576 62.8782 56.1972L62.3836 55.328L61.8891 54.4588C61.1094 54.9024 60.4854 55.5324 60.0184 56.3237L60.8796 56.832ZM62.3836 55.328L62.8829 56.1944C63.3474 55.9268 63.8819 55.784 64.5116 55.784V54.784V53.784C63.5627 53.784 62.6785 54.0039 61.8843 54.4616L62.3836 55.328ZM80.2836 60.576L81.2704 60.738L81.4612 59.576H80.2836V60.576ZM79.4036 62.464L78.6464 61.8107L78.6391 61.8194L79.4036 62.464ZM77.6436 63.744L77.2464 62.8263L77.6436 63.744ZM72.6196 63.616L72.1528 64.5004L72.1626 64.5054L72.6196 63.616ZM70.8116 61.952L69.953 62.4646L69.9575 62.4722L69.9622 62.4797L70.8116 61.952ZM70.8116 57.04L69.9586 56.518L69.9564 56.5217L70.8116 57.04ZM77.6436 55.248L77.2464 56.1658L77.258 56.1707L77.6436 55.248ZM79.4036 56.512L78.6391 57.1566L78.6465 57.1652L79.4036 56.512ZM80.2836 58.416V59.416H81.4584L81.2708 58.2563L80.2836 58.416ZM78.7636 58.416L77.7858 58.6255L77.9552 59.416H78.7636V58.416ZM77.5636 56.656L76.993 57.4772L77.0009 57.4827L77.0089 57.4881L77.5636 56.656ZM73.3716 56.432L72.9037 55.5482L72.8965 55.5521L73.3716 56.432ZM72.1236 57.648L72.9874 58.1519L72.9919 58.1441L72.1236 57.648ZM72.1236 61.344L71.2554 61.8401V61.8401L72.1236 61.344ZM73.3716 62.56L72.8965 63.4399L72.9069 63.4455L72.9174 63.4509L73.3716 62.56ZM77.5796 62.32L77.0154 61.4943L77.009 61.4988L77.5796 62.32ZM78.7636 60.576V59.576H77.9485L77.7842 60.3743L78.7636 60.576ZM80.2836 60.576L79.2968 60.414C79.2091 60.9484 78.9945 61.4074 78.6465 61.8108L79.4036 62.464L80.1608 63.1172C80.7515 62.4326 81.1235 61.6329 81.2704 60.738L80.2836 60.576ZM79.4036 62.464L78.6391 61.8194C78.2893 62.2343 77.8328 62.5725 77.2464 62.8263L77.6436 63.744L78.0408 64.6617C78.8838 64.2969 79.6007 63.7817 80.1681 63.1086L79.4036 62.464ZM77.6436 63.744L77.2464 62.8263C76.6702 63.0757 76.018 63.208 75.2756 63.208V64.208V65.208C76.2612 65.208 77.1877 65.031 78.0408 64.6617L77.6436 63.744ZM75.2756 64.208V63.208C74.4063 63.208 73.6821 63.0377 73.0767 62.7266L72.6196 63.616L72.1626 64.5054C73.0931 64.9837 74.1396 65.208 75.2756 65.208V64.208ZM72.6196 63.616L73.0864 62.7316C72.4675 62.405 72.0002 61.9702 71.6611 61.4243L70.8116 61.952L69.9622 62.4797C70.4977 63.3418 71.2357 64.0163 72.1529 64.5004L72.6196 63.616ZM70.8116 61.952L71.6702 61.4394C71.3464 60.897 71.1716 60.2568 71.1716 59.488H70.1716H69.1716C69.1716 60.5752 69.4235 61.5777 69.953 62.4646L70.8116 61.952ZM70.1716 59.488H71.1716C71.1716 58.7189 71.3465 58.0868 71.6668 57.5583L70.8116 57.04L69.9564 56.5217C69.4234 57.4012 69.1716 58.4011 69.1716 59.488H70.1716ZM70.8116 57.04L71.6646 57.562C72.0031 57.0087 72.4666 56.5789 73.0767 56.2654L72.6196 55.376L72.1626 54.4866C71.2366 54.9624 70.4948 55.6419 69.9587 56.518L70.8116 57.04ZM72.6196 55.376L73.0767 56.2654C73.6821 55.9543 74.4063 55.784 75.2756 55.784V54.784V53.784C74.1396 53.784 73.0931 54.0083 72.1626 54.4866L72.6196 55.376ZM75.2756 54.784V55.784C76.018 55.784 76.6702 55.9163 77.2464 56.1657L77.6436 55.248L78.0408 54.3303C77.1877 53.961 76.2612 53.784 75.2756 53.784V54.784ZM77.6436 55.248L77.258 56.1707C77.8393 56.4136 78.2917 56.7446 78.6391 57.1566L79.4036 56.512L80.1682 55.8674C79.5982 55.1914 78.8772 54.6797 78.0292 54.3253L77.6436 55.248ZM79.4036 56.512L78.6465 57.1652C78.9921 57.5659 79.208 58.0286 79.2965 58.5757L80.2836 58.416L81.2708 58.2563C81.1246 57.3527 80.7538 56.5461 80.1608 55.8588L79.4036 56.512ZM80.2836 58.416V57.416H78.7636V58.416V59.416H80.2836V58.416ZM78.7636 58.416L79.7414 58.2065C79.5264 57.203 78.9733 56.3939 78.1183 55.8239L77.5636 56.656L77.0089 57.4881C77.434 57.7714 77.6808 58.1356 77.7858 58.6255L78.7636 58.416ZM77.5636 56.656L78.1343 55.8348C77.3105 55.2623 76.3402 55 75.2756 55V56V57C76.0031 57 76.5581 57.175 76.993 57.4772L77.5636 56.656ZM75.2756 56V55C74.4163 55 73.6156 55.1714 72.9037 55.5482L73.3716 56.432L73.8395 57.3158C74.2157 57.1166 74.6843 57 75.2756 57V56ZM73.3716 56.432L72.8965 55.5521C72.2001 55.9282 71.6474 56.4659 71.2554 57.1519L72.1236 57.648L72.9919 58.1441C73.1972 57.7848 73.4765 57.5118 73.8468 57.3119L73.3716 56.432ZM72.1236 57.648L71.2598 57.1441C70.8552 57.8377 70.6756 58.6327 70.6756 59.488H71.6756H72.6756C72.6756 58.914 72.7947 58.4823 72.9874 58.1519L72.1236 57.648ZM71.6756 59.488H70.6756C70.6756 60.344 70.8555 61.1403 71.2554 61.8401L72.1236 61.344L72.9919 60.8479C72.7944 60.5023 72.6756 60.0613 72.6756 59.488H71.6756ZM72.1236 61.344L71.2554 61.8401C71.6474 62.5261 72.2001 63.0638 72.8965 63.4399L73.3716 62.56L73.8468 61.6801C73.4765 61.4802 73.1972 61.2072 72.9919 60.8479L72.1236 61.344ZM73.3716 62.56L72.9174 63.4509C73.6262 63.8122 74.4219 63.976 75.2756 63.976V62.976V61.976C74.6787 61.976 74.205 61.8624 73.8258 61.6691L73.3716 62.56ZM75.2756 62.976V63.976C76.3481 63.976 77.3245 63.715 78.1503 63.1412L77.5796 62.32L77.009 61.4988C76.576 61.7997 76.0165 61.976 75.2756 61.976V62.976ZM77.5796 62.32L78.1438 63.1456C78.9868 62.5696 79.5388 61.7698 79.7431 60.7777L78.7636 60.576L77.7842 60.3743C77.6898 60.8329 77.4524 61.1957 77.0154 61.4944L77.5796 62.32ZM78.7636 60.576V61.576H80.2836V60.576V59.576H78.7636V60.576ZM84.0281 63.616L83.5713 64.5056L83.5785 64.5092L83.5857 64.5128L84.0281 63.616ZM82.1561 61.952L81.3088 62.4831L81.3135 62.4905L81.3183 62.4979L82.1561 61.952ZM82.1241 57.024L81.2689 56.5057L82.1241 57.024ZM83.9001 55.376L83.438 54.4892L83.9001 55.376ZM89.0521 55.424L88.5451 56.2859V56.2859L89.0521 55.424ZM90.7321 57.232L89.8402 57.6841L89.8439 57.6915L89.8477 57.6988L90.7321 57.232ZM91.3401 59.92V60.92H92.3401V59.92H91.3401ZM82.6041 59.92H81.6041V60.92H82.6041V59.92ZM82.6041 58.752V57.752H81.6041V58.752H82.6041ZM90.7161 58.752L91.2376 59.6053L94.2702 57.752H90.7161V58.752ZM89.8521 59.28L88.8533 59.3276L88.9335 61.0133L90.3736 60.1333L89.8521 59.28ZM88.2041 56.4L88.6816 55.5214V55.5214L88.2041 56.4ZM84.6521 56.432L85.1208 57.3153L85.1278 57.3116L85.1347 57.3078L84.6521 56.432ZM83.4201 57.616L82.5563 57.1121L82.5524 57.1189L82.5485 57.1257L83.4201 57.616ZM83.4841 61.312L84.334 60.7851L83.4841 61.312ZM84.8761 62.544L85.3104 61.6432L84.8761 62.544ZM89.1481 62.608L88.8234 61.6622L88.8191 61.6637L89.1481 62.608ZM91.0681 61.6H92.0681V59.5924L90.4657 60.8018L91.0681 61.6ZM91.0681 62.752L91.6965 63.5299L92.0681 63.2298V62.752H91.0681ZM89.0841 63.824L89.4004 64.7728L89.4121 64.7687L89.0841 63.824ZM86.7801 64.208V63.208C85.8744 63.208 85.1125 63.0359 84.4706 62.7192L84.0281 63.616L83.5857 64.5128C84.5437 64.9854 85.6165 65.208 86.7801 65.208V64.208ZM84.0281 63.616L84.4849 62.7264C83.8413 62.3959 83.3523 61.9561 82.994 61.4061L82.1561 61.952L81.3183 62.4979C81.8773 63.3559 82.6362 64.0254 83.5713 64.5056L84.0281 63.616ZM82.1561 61.952L83.0034 61.4209C82.6651 60.8811 82.4841 60.2476 82.4841 59.488H81.4841H80.4841C80.4841 60.5844 80.7512 61.5935 81.3088 62.4831L82.1561 61.952ZM81.4841 59.488H82.4841C82.4841 58.7059 82.6601 58.069 82.9793 57.5423L82.1241 57.024L81.2689 56.5057C80.7348 57.387 80.4841 58.3928 80.4841 59.488H81.4841ZM82.1241 57.024L82.9793 57.5423C83.3075 57.0008 83.7608 56.5762 84.3623 56.2628L83.9001 55.376L83.438 54.4892C82.5247 54.9651 81.7941 55.6392 81.2689 56.5057L82.1241 57.024ZM83.9001 55.376L84.3623 56.2628C84.9569 55.9529 85.6636 55.784 86.5081 55.784V54.784V53.784C85.39 53.784 84.358 54.0098 83.438 54.4892L83.9001 55.376ZM86.5081 54.784V55.784C87.3283 55.784 87.9957 55.9628 88.5451 56.2859L89.0521 55.424L89.5591 54.5621C88.6578 54.0319 87.6293 53.784 86.5081 53.784V54.784ZM89.0521 55.424L88.5451 56.2859C89.0992 56.6119 89.5286 57.0693 89.8402 57.6841L90.7321 57.232L91.6241 56.7799C91.1464 55.8373 90.4557 55.0895 89.5591 54.5621L89.0521 55.424ZM90.7321 57.232L89.8477 57.6988C90.1646 58.2992 90.3401 59.0296 90.3401 59.92H91.3401H92.3401C92.3401 58.7624 92.1103 57.7008 91.6165 56.7652L90.7321 57.232ZM91.3401 59.92V58.92H82.6041V59.92V60.92H91.3401V59.92ZM82.6041 59.92H83.6041V58.752H82.6041H81.6041V59.92H82.6041ZM82.6041 58.752V59.752H90.7161V58.752V57.752H82.6041V58.752ZM90.7161 58.752L90.1947 57.8987L89.3307 58.4267L89.8521 59.28L90.3736 60.1333L91.2376 59.6053L90.7161 58.752ZM89.8521 59.28L90.851 59.2324C90.8127 58.4282 90.6182 57.6834 90.2345 57.0298L89.3721 57.536L88.5097 58.0422C88.7021 58.3699 88.8276 58.7878 88.8533 59.3276L89.8521 59.28ZM89.3721 57.536L90.2345 57.0298C89.8563 56.3854 89.3352 55.8766 88.6816 55.5214L88.2041 56.4L87.7266 57.2786C88.0544 57.4568 88.3119 57.7053 88.5097 58.0422L89.3721 57.536ZM88.2041 56.4L88.6816 55.5214C88.0219 55.1628 87.2819 55 86.4921 55V56V57C87.0037 57 87.405 57.1039 87.7266 57.2786L88.2041 56.4ZM86.4921 56V55C85.6498 55 84.8645 55.1732 84.1695 55.5562L84.6521 56.432L85.1347 57.3078C85.4851 57.1148 85.9265 57 86.4921 57V56ZM84.6521 56.432L84.1834 55.5487C83.496 55.9134 82.9486 56.4396 82.5563 57.1121L83.4201 57.616L84.2839 58.1199C84.489 57.7684 84.7629 57.5053 85.1208 57.3153L84.6521 56.432ZM83.4201 57.616L82.5485 57.1257C82.1623 57.8124 81.9881 58.59 81.9881 59.424H82.9881H83.9881C83.9881 58.8713 84.1019 58.4436 84.2917 58.1063L83.4201 57.616ZM82.9881 59.424H81.9881C81.9881 60.306 82.1909 61.124 82.6342 61.8389L83.4841 61.312L84.334 60.7851C84.116 60.4334 83.9881 59.9927 83.9881 59.424H82.9881ZM83.4841 61.312L82.6342 61.8389C83.0709 62.5432 83.6834 63.0791 84.4418 63.4448L84.8761 62.544L85.3104 61.6432C84.8742 61.4329 84.5587 61.1475 84.334 60.7851L83.4841 61.312ZM84.8761 62.544L84.4418 63.4448C85.2014 63.811 86.0599 63.976 86.9881 63.976V62.976V61.976C86.295 61.976 85.7455 61.853 85.3104 61.6432L84.8761 62.544ZM86.9881 62.976V63.976C87.8376 63.976 88.6688 63.834 89.4772 63.5523L89.1481 62.608L88.8191 61.6637C88.2195 61.8726 87.6106 61.976 86.9881 61.976V62.976ZM89.1481 62.608L89.4728 63.5538C90.2806 63.2765 91.0155 62.8925 91.6705 62.3982L91.0681 61.6L90.4657 60.8018C89.9901 61.1608 89.445 61.4488 88.8234 61.6622L89.1481 62.608ZM91.0681 61.6H90.0681V62.752H91.0681H92.0681V61.6H91.0681ZM91.0681 62.752L90.4398 61.9741C89.9865 62.3402 89.4302 62.6453 88.7561 62.8793L89.0841 63.824L89.4121 64.7687C90.274 64.4694 91.0404 64.0598 91.6965 63.5299L91.0681 62.752ZM89.0841 63.824L88.7679 62.8753C88.0963 63.0992 87.4349 63.208 86.7801 63.208V64.208V65.208C87.6613 65.208 88.5359 65.0608 89.4004 64.7727L89.0841 63.824Z" fill="black" mask="url(#path-1-outside-1_66_3)"/>
<path d="M15.424 41.952V32.112H39.952V41.952H15.424ZM36.16 12L51.952 48H38.752L26.32 17.472H29.488L17.056 48H3.856L19.648 12H36.16ZM67.0765 12V42.528L61.5085 36.96H88.2925V48H54.6925V12H67.0765Z" fill="white"/>
</svg>
